<svg width="1728" height="408" viewBox="0 0 1728 408" fill="none" xmlns="http://www.w3.org/2000/svg">
<path fill-rule="evenodd" clip-rule="evenodd" d="M0 38.6085L72 23.2617C144 7.91495 288 -23.8017 432 30.4235C576 84.6487 720 223.793 864 240.163C1008 255.509 1152 147.059 1296 147.059C1440 147.059 1584 255.509 1656 309.735L1728 363.96V410H1656C1584 410 1440 410 1296 410C1152 410 1008 410 864 410C720 410 576 410 432 410C288 410 144 410 72 410H0V38.6085Z" fill="url(#paint0_linear_15_550)"/>
<path fill-rule="evenodd" clip-rule="evenodd" d="M-3 78.891L69 63.4319C141 47.9729 285 16.0242 429 70.6461C573 125.268 717 265.43 861 281.92C1005 297.379 1149 188.135 1293 188.135C1437 188.135 1581 297.379 1653 352.001L1725 406.623V453H1653C1581 453 1437 453 1293 453C1149 453 1005 453 861 453C717 453 573 453 429 453C285 453 141 453 69 453H-3V78.891Z" fill="#DDCBFC"/>
<defs>
<linearGradient id="paint0_linear_15_550" x1="1728" y1="205" x2="0" y2="205" gradientUnits="userSpaceOnUse">
<stop stop-color="#8E63D4"/>
<stop offset="0.5" stop-color="#6E519D"/>
<stop offset="1" stop-color="#664C92"/>
</linearGradient>
</defs>
</svg>
